PathFileType  4	(X/Y/Z) C:\Users\antoi\Documents\MyRepositories\mobilecap\ResultsAnalysis
DataRate	CameraRate	NumFrames	NumMarkers	Units	OrigDataRate	OrigDataStartFrame	OrigNumFrames
100.0	100.0	6	51	mm	100.0	814	1302
Frame#	Time	r_knee			r_shank_antsup			r_ankle			r_calc			r_5meta			r_toe			L_knee			L_shank_antsup			L_ankle			L_calc			L_5meta			L_toe			r_sh2			r_sh3			r_sh4			L_sh2			L_sh3			r_thigh1			r_thigh2			r_thigh3			r_thigh4			r_thigh5			L_thigh1			L_thigh2			L_thigh3			L_thigh4			r.ASIS			r.PSIS			L.ASIS			L.PSIS			C7			R_Shoulder			L_Shoulder			R_Sternum			L_Sternum			R_humerus			R_elbow_med			R_elbow_lat			R_forearm			R_wrist_radius			R_wrist_ulna			L_humerus			L_elbow_med			L_elbow_lat			L_forearm			L_wrist_radius			L_wrist_ulna			R_HJC			L_HJC			R_HJC_reg			L_HJC_reg			
		X1	Y1	Z1	X2	Y2	Z2	X3	Y3	Z3	X4	Y4	Z4	X5	Y5	Z5	X6	Y6	Z6	X7	Y7	Z7	X8	Y8	Z8	X9	Y9	Z9	X10	Y10	Z10	X11	Y11	Z11	X12	Y12	Z12	X13	Y13	Z13	X14	Y14	Z14	X15	Y15	Z15	X16	Y16	Z16	X17	Y17	Z17	X18	Y18	Z18	X19	Y19	Z19	X20	Y20	Z20	X21	Y21	Z21	X22	Y22	Z22	X23	Y23	Z23	X24	Y24	Z24	X25	Y25	Z25	X26	Y26	Z26	X27	Y27	Z27	X28	Y28	Z28	X29	Y29	Z29	X30	Y30	Z30	X31	Y31	Z31	X32	Y32	Z32	X33	Y33	Z33	X34	Y34	Z34	X35	Y35	Z35	X36	Y36	Z36	X37	Y37	Z37	X38	Y38	Z38	X39	Y39	Z39	X40	Y40	Z40	X41	Y41	Z41	X42	Y42	Z42	X43	Y43	Z43	X44	Y44	Z44	X45	Y45	Z45	X46	Y46	Z46	X47	Y47	Z47	X48	Y48	Z48	X49	Y49	Z49	X50	Y50	Z50	X51	Y51	Z51	

814	8.13000000	-236.81522	499.15950	-482.00350	-190.59440	433.33148	-485.91664	-269.39205	101.40333	-423.51471	-339.21204	63.16393	-450.76043	-165.02699	46.39519	-389.78834	-121.21470	72.62556	-447.57223	-235.18835	495.18670	-909.54645	-192.01509	406.47373	-920.77429	-259.56611	100.53119	-971.93605	-333.03855	61.05799	-957.50700	-143.75207	43.00252	-979.45148	-124.01748	69.52260	-915.28876	-217.43512	328.37043	-443.41699	-265.94369	453.90169	-460.30805	-287.76277	344.59115	-435.48086	-278.00819	423.94541	-937.63302	-283.12984	305.26716	-970.09397	-270.76062	816.37501	-508.02943	-243.63220	707.93817	-494.79727	-293.49345	674.30396	-467.01118	-380.24206	786.94642	-501.86367	-346.66375	675.35978	-485.82003	-281.44831	762.54281	-920.36637	-237.10956	632.00913	-912.20186	-387.62608	726.52133	-882.52182	-337.29791	596.10866	-892.54973	-262.11742	933.49288	-572.10693	-430.60705	1015.03244	-659.02474	-254.77598	915.13613	-826.59309	-431.72307	1017.75217	-759.59341	-222.50423	1399.71076	-724.87940	-158.00245	1355.50067	-558.84028	-166.97433	1361.07691	-882.57256	-115.57039	1300.17709	-695.96850	-110.33463	1298.41327	-740.14328	-165.35435	1271.16399	-456.26540	-205.38298	1062.43958	-393.24604	-182.86523	1114.64911	-336.77512	-54.35003	1116.27857	-393.41910	56.47781	1106.41775	-454.73429	72.90227	1082.24009	-433.32406	-160.54035	1272.05466	-967.77157	-195.97815	1037.89525	-1000.17323	-172.21734	1089.36721	-1063.54093	-77.09536	1099.03527	-1005.98881	52.70105	1090.32329	-938.70939	65.86667	1067.21843	-960.78754	-355.08019	874.61195	-597.67966	-350.22260	866.34317	-803.92781	-346.28271	867.07435	-608.35070	-348.15115	871.62834	-776.74571	
815	8.14000000	-237.38710	499.02895	-481.99537	-191.01354	433.50189	-485.37978	-269.42455	101.41568	-423.51044	-339.12382	63.19935	-450.78792	-165.05098	46.33668	-389.70964	-121.18224	72.59523	-447.45493	-234.58634	495.15412	-910.68613	-191.57417	406.42609	-921.89689	-259.67467	100.82254	-972.44626	-333.08512	61.09735	-956.99460	-143.98713	43.02329	-980.51952	-123.82359	69.55061	-916.54539	-217.95524	328.22718	-443.09057	-266.58697	453.81854	-460.48919	-288.17746	344.42675	-435.37607	-277.60462	423.89445	-938.05777	-282.95886	305.23332	-970.48552	-272.89587	816.29384	-508.66952	-245.20701	707.93218	-495.02337	-294.88946	674.12027	-467.30814	-382.24382	786.16089	-502.34625	-348.01304	674.88579	-486.17841	-282.47009	762.00804	-921.31639	-237.22004	631.81584	-913.12062	-388.53360	725.23159	-883.16589	-337.28724	595.34305	-893.55640	-264.13052	931.83260	-573.19341	-432.09927	1014.87436	-659.83813	-256.71739	913.96333	-827.68888	-433.16504	1017.41847	-760.47642	-221.64437	1397.87572	-724.99069	-157.22677	1353.41502	-559.28233	-165.92769	1359.35561	-882.68883	-114.68871	1298.25653	-695.94452	-109.74516	1296.39462	-740.63188	-164.25668	1269.35472	-456.43000	-203.49547	1060.64770	-393.31000	-181.07952	1112.99919	-336.62100	-52.71987	1115.26315	-393.53695	58.08491	1105.88472	-454.95662	74.68066	1081.84933	-433.47373	-159.27624	1270.90615	-968.30750	-193.61175	1036.61165	-1001.50712	-169.74538	1088.42556	-1064.56978	-74.93273	1098.44969	-1006.95985	54.99231	1090.11505	-939.53830	68.29145	1067.08205	-961.64573	-357.43158	873.65035	-598.82967	-352.58851	865.73538	-805.09142	-348.81819	866.65361	-609.36779	-350.60103	870.91201	-777.75648	
816	8.15000000	-237.65504	498.97256	-481.72570	-191.25243	433.63565	-484.87022	-269.45568	101.37822	-423.51115	-339.07865	63.24343	-450.84024	-165.05782	46.28693	-389.62980	-121.15935	72.58112	-447.33481	-233.92534	495.13847	-911.70331	-191.05574	406.27805	-922.67016	-259.65552	101.34567	-973.24128	-333.09389	61.18879	-956.57197	-144.18846	43.00750	-981.55318	-123.64587	69.47738	-917.66055	-218.17470	328.07290	-442.76489	-266.81220	453.70431	-460.36765	-288.46316	344.28649	-435.33900	-277.09464	423.76580	-938.36349	-282.71449	305.15766	-970.71601	-275.16276	816.18522	-509.31757	-246.75121	707.97134	-495.14949	-296.05284	673.83530	-467.46533	-384.20748	785.24315	-502.75222	-349.20640	674.28706	-486.39074	-283.48924	761.38031	-922.16937	-237.33918	631.47687	-913.75553	-389.39927	723.91386	-884.11859	-337.15151	594.46378	-894.73653	-266.10328	929.76189	-574.95264	-433.54977	1014.59437	-660.60237	-258.77392	912.71327	-828.61769	-434.66352	1017.02695	-761.39488	-220.82401	1395.88147	-725.03247	-156.41231	1351.23291	-559.63862	-164.89351	1357.48555	-882.62957	-113.80791	1296.24524	-695.81838	-109.18010	1294.26693	-741.08456	-163.12370	1267.38909	-456.63405	-201.41602	1058.82775	-392.85627	-179.07073	1111.22637	-336.45244	-50.93392	1114.21910	-393.49572	59.87490	1105.35368	-455.01957	76.65336	1081.48287	-433.57416	-157.87257	1269.62057	-968.63658	-191.03354	1035.74533	-1002.63353	-167.01417	1087.44761	-1065.59885	-72.42460	1097.82154	-1007.93773	57.51875	1089.96818	-940.38443	70.96091	1067.06326	-962.45978	-359.80046	872.41158	-600.20519	-355.11899	865.08339	-806.49256	-351.27004	866.30402	-610.86418	-353.12365	870.35443	-778.67150	
817	8.16000000	-237.75771	499.03995	-481.20275	-191.32088	433.64956	-484.51188	-269.46500	101.31711	-423.48614	-339.10460	63.26633	-450.91783	-165.06473	46.20388	-389.51670	-121.15192	72.53511	-447.18728	-233.09240	494.93920	-912.35491	-190.35435	406.06313	-923.31198	-259.60676	101.60935	-973.61153	-333.14804	61.22334	-956.28618	-144.37862	42.96162	-982.32529	-123.47747	69.42042	-918.54823	-218.27301	328.00870	-442.36392	-266.78600	453.54272	-459.89215	-288.68730	344.13078	-435.32010	-276.41326	423.65652	-938.64147	-282.35514	304.88659	-970.74558	-277.35813	816.01082	-509.93799	-248.11589	708.09859	-495.34282	-297.04024	673.53068	-467.47957	-386.06891	784.25764	-503.06538	-350.30854	673.61167	-486.29517	-284.51236	760.72781	-922.82710	-237.45477	631.17157	-914.39091	-390.26672	722.53668	-885.44968	-336.89555	593.54418	-895.99226	-268.17666	927.81999	-576.32827	-435.08939	1014.02744	-661.20701	-260.89519	911.12533	-829.01904	-436.16999	1016.47324	-762.04791	-220.05291	1393.69287	-725.06394	-155.58064	1348.91204	-559.97513	-163.80599	1355.53705	-882.57002	-112.91910	1294.05836	-695.72417	-108.63233	1291.85193	-740.94616	-161.93483	1265.37198	-456.78787	-199.07731	1056.90186	-392.11784	-176.87427	1109.43147	-336.24514	-48.98919	1113.17391	-393.27539	61.83289	1104.85063	-455.03290	78.77143	1081.17365	-433.49954	-156.32012	1268.20022	-968.87887	-187.78562	1034.58442	-1004.01660	-163.98623	1086.52140	-1066.76318	-69.55287	1097.15935	-1008.90821	60.25141	1089.87761	-941.19816	73.90421	1067.17158	-963.11653	-362.24105	871.17372	-601.10163	-357.63713	864.11319	-807.40065	-353.69718	865.51856	-612.09018	-355.48879	869.57206	-779.23966	
818	8.17000000	-237.81825	499.09249	-480.57742	-191.32692	433.55444	-484.18751	-269.50465	101.26374	-423.42865	-339.06790	63.31125	-450.92065	-165.08690	46.11378	-389.34882	-121.14587	72.45653	-447.01298	-232.05146	494.54515	-912.78430	-189.44015	405.77239	-923.92366	-259.63223	101.55014	-973.48592	-333.28490	61.19349	-956.01166	-144.59594	42.91494	-982.83569	-123.34274	69.46046	-919.24566	-218.38246	328.05258	-441.87385	-266.78461	453.43744	-459.25619	-288.82799	343.89139	-435.20494	-275.56159	423.58409	-938.99898	-281.89443	304.54405	-970.70478	-279.31417	815.54497	-510.81084	-249.24020	708.15232	-495.62403	-297.93822	673.23829	-467.51058	-387.83274	783.18319	-503.20789	-351.32721	672.91240	-485.88273	-285.49836	760.15467	-923.08506	-237.47694	630.96436	-915.14559	-391.13667	721.04559	-886.79526	-336.54742	592.57424	-897.06416	-270.47084	926.10118	-576.97673	-436.71928	1013.37224	-661.61153	-263.03337	909.27088	-829.17462	-437.66434	1015.86839	-762.54596	-219.28921	1391.28984	-725.10497	-154.77293	1346.46262	-560.36561	-162.63598	1353.48400	-882.58862	-112.05429	1291.70610	-695.72001	-108.03601	1289.25001	-740.67575	-160.59732	1263.38326	-456.81129	-196.49002	1054.89229	-391.46875	-174.45852	1107.70590	-335.87958	-46.78638	1112.16610	-392.97947	63.99557	1104.37348	-455.03942	81.10803	1080.94865	-433.27138	-154.63334	1266.68420	-969.10739	-184.08083	1032.13970	-1006.23179	-160.61587	1085.58221	-1068.01802	-66.41709	1096.56035	-1009.93685	63.26127	1089.91494	-941.83197	77.15446	1067.41808	-963.73467	-364.85651	870.06177	-601.52734	-360.15073	862.94794	-807.82198	-356.29366	864.38769	-612.77750	-357.85631	868.51337	-779.61193	
819	8.18000000	-237.84957	499.05821	-479.98156	-191.40294	433.48909	-483.66594	-269.56442	101.24511	-423.34968	-338.95734	63.38315	-450.85100	-165.11275	46.06446	-389.16024	-121.13657	72.42266	-446.82440	-230.83350	494.25036	-913.41111	-188.40902	405.43820	-924.39751	-259.72445	101.49280	-973.33821	-333.42021	61.17503	-955.66349	-144.84484	43.00161	-983.39502	-123.24572	69.54105	-919.96134	-218.45595	328.16362	-441.40572	-266.95615	453.44574	-458.75007	-289.03862	343.62032	-435.14110	-274.54977	423.52595	-939.53152	-281.31728	304.41405	-970.78979	-281.27385	814.97095	-511.59536	-250.39169	708.04546	-495.84162	-298.85208	672.99047	-467.39546	-389.60028	782.05842	-503.17050	-352.29523	672.19832	-485.40531	-286.48542	759.64966	-923.06229	-237.34717	630.81707	-915.98590	-391.98001	719.37092	-887.84952	-336.10666	591.49673	-898.00695	-272.91046	924.26664	-577.46238	-438.34345	1012.80871	-662.00408	-265.20820	907.33401	-829.40107	-439.17191	1015.33199	-763.10550	-218.49925	1388.67605	-725.10023	-153.97064	1343.87403	-560.76545	-161.44259	1351.26779	-882.61247	-111.23982	1289.22450	-695.75249	-107.36980	1286.64807	-740.92714	-159.09945	1261.36313	-456.74219	-193.74764	1052.91873	-390.78359	-171.83660	1106.07326	-335.31706	-44.27245	1111.14095	-392.70596	66.38498	1103.91021	-454.95758	83.73407	1080.72346	-433.05606	-152.84783	1265.07605	-969.26790	-180.46579	1028.94182	-1008.81311	-156.97384	1084.47069	-1069.21373	-63.08234	1095.98741	-1010.98813	66.56819	1090.08656	-942.32173	80.64542	1067.83897	-964.51094	-367.65983	868.94410	-601.96208	-362.77006	861.80023	-808.25126	-359.07081	863.25531	-613.30866	-360.43645	867.41429	-779.98289	
